<?xml version="1.0" encoding="utf-8"?>
<!-- Generator: Adobe Illustrator 18.0.0, SVG Export Plug-In . SVG Version: 6.00 Build 0)  -->
<!DOCTYPE svg PUBLIC "-//W3C//DTD SVG 1.1//EN" "http://www.w3.org/Graphics/SVG/1.1/DTD/svg11.dtd">
<svg version="1.1" id="Layer_1" xmlns="http://www.w3.org/2000/svg" xmlns:xlink="http://www.w3.org/1999/xlink" x="0px" y="0px"
	 viewBox="0 0 612 792" enable-background="new 0 0 612 792" xml:space="preserve">
<g transform="translate(0.000000,256.000000) scale(0.100000,-0.100000)">
	<path d="M3510.9,751c24.7-4.4,49.7-8.2,75.1-11.5c0,588.1,0,1176.2,0,1764.3c0,1071,9.6,1843.2,23.9,1965.1
		c17.3,135.4,49.1,285.7,127.4,400.5c80,117.4,189.6,185.1,210.9,340c-224.3,0.4-448.7,0.5-673,0.5c-223.9,0-447.7,0-671.6,0
		c-57.1,0,193.4-327.9,203.6-343.1c101.5-151.1,97-386.3,114.9-566.6c54.6-549.5,14.5-1096.8,11.5-1646.6
		c-1.1-203.9-11.7-410.3-4.3-613.9c6-166.1,14.2-311.1-88.8-454.9c-92.3-129-223.9-163.9-369.8-199
		c-113.6-27.3-316.9-80.5-165.2-195.5c167.1-126.5,377.9-168.4,571.6-235.8C3088,881.3,3289.1,790.3,3510.9,751z"/>
</g>
</svg>
