<?xml version="1.0" encoding="utf-8"?>
<!-- Generator: Adobe Illustrator 18.0.0, SVG Export Plug-In . SVG Version: 6.00 Build 0)  -->
<!DOCTYPE svg PUBLIC "-//W3C//DTD SVG 1.1//EN" "http://www.w3.org/Graphics/SVG/1.1/DTD/svg11.dtd">
<svg version="1.1" id="Layer_1" xmlns:sketch="http://www.bohemiancoding.com/sketch/ns"
	 xmlns="http://www.w3.org/2000/svg" xmlns:xlink="http://www.w3.org/1999/xlink" x="0px" y="0px" viewBox="0 0 12 12"
	 enable-background="new 0 0 12 12" xml:space="preserve">
<title></title>
<desc></desc>
<g id="XwSC4d_1_">
	<g id="tzKT8m_1_">
		<g>
			<path d="M3.3,12c-0.1-0.2,0-0.4,0.2-0.5C4.6,10.3,5.7,9,6.7,7.6c0.5-0.6,0.8-1.3,1-2.2c0.1-0.6,0-1.2-0.2-1.7
				C7.1,3,6,2.7,5.4,3.3C5,3.6,4.7,3.8,4.3,4.1C4.3,4.2,4.1,4.2,4,4.3c0-0.6,0-1.1,0-1.6C4,2.6,4,2.5,4.1,2.5
				c1.1-0.2,2.2-0.4,3.3-0.2C9,2.8,9.7,4,9.3,5.6C9.1,6.2,8.8,6.7,8.5,7.2c-0.9,1.3-2,2.3-3.1,3.5c-0.1,0.1-0.1,0.1-0.2,0.2
				c0.1,0,0.1,0,0.2,0c0.7,0,1.4,0,2.1,0c0.4,0,0.6-0.1,0.9-0.3C8.7,10.3,9,10,9.4,9.7c0.1-0.1,0.2-0.1,0.4-0.1
				c-0.2,0.9-0.2,1.6-0.3,2.5C7.3,12,5.3,12,3.3,12z"/>
		</g>
	</g>
</g>
</svg>
