<?xml version="1.0" encoding="utf-8"?>
<!-- Generator: Adobe Illustrator 18.0.0, SVG Export Plug-In . SVG Version: 6.00 Build 0)  -->
<!DOCTYPE svg PUBLIC "-//W3C//DTD SVG 1.1//EN" "http://www.w3.org/Graphics/SVG/1.1/DTD/svg11.dtd">
<svg version="1.1" id="Layer_1" xmlns="http://www.w3.org/2000/svg" xmlns:xlink="http://www.w3.org/1999/xlink" x="0px" y="0px"
	 viewBox="0 0 612 792" enable-background="new 0 0 612 792" xml:space="preserve">
<g transform="translate(0.000000,256.000000) scale(0.100000,-0.100000)">
	<path d="M3478.5,740c368.2,80.8,686.6,262.8,819.9,626.9c138.7,370.5,107.6,784.1-83.7,1166.6
		c-210.4,420.8-731.5,1028-1580.2,1838.4l-294,279.7h647.9c590.5,0,655-4.8,736.3-45.4c47.8-26.3,222.3-160.2,387.3-298.8
		c279.7-236.7,387.3-306,423.1-267.7c45.9,46.4-32.9,369.4-39.9,428.8c-27.3,229.8-58.3,457.9-101.1,685.3
		c-481.3,0-962.6,0-1443.9,0c-474,0-970.6,44.2-1441.1-2.9c-91.1-9.1,303.5-453.5,315.1-465.6
		c872.6-918,1403.3-1570.6,1611.3-1979.4c308.4-607.2,243.8-1326.8-143.4-1585c-198.4-133.9-502-160.2-674.2-57.4
		c-40.6,23.9-212.8,153-380.1,284.5c-91.3,72.6-285.3,279-419.1,239.9c-2.1-204.7,2-409.9,3.2-614.7c0.2-38.7,0.7-78.5,15.3-114.4
		c49.2-120.5,281.9-104.9,387.7-120.4C2573.5,687.3,3058.4,647.8,3478.5,740z"/>
</g>
</svg>
