<?xml version="1.0" encoding="utf-8"?>
<!-- Generator: Adobe Illustrator 18.0.0, SVG Export Plug-In . SVG Version: 6.00 Build 0)  -->
<!DOCTYPE svg PUBLIC "-//W3C//DTD SVG 1.1//EN" "http://www.w3.org/Graphics/SVG/1.1/DTD/svg11.dtd">
<svg version="1.1" id="Layer_1" xmlns:sketch="http://www.bohemiancoding.com/sketch/ns"
	 xmlns="http://www.w3.org/2000/svg" xmlns:xlink="http://www.w3.org/1999/xlink" x="0px" y="0px" viewBox="0 0 12 12"
	 enable-background="new 0 0 12 12" xml:space="preserve">
<title></title>
<desc></desc>
<g>
	<path d="M5.9,12.3c-0.6-0.1-1.1-0.2-1.7-0.3c-0.1,0-0.1-0.1-0.3-0.1c0-0.5,0-1.1,0-1.7c0.2,0.1,0.3,0.1,0.5,0.2
		c0.4,0.3,0.8,0.5,1.1,0.8c0.6,0.5,1.3,0.5,1.9-0.1s0.9-1.3,0.9-2c0-1.1-0.7-1.9-1.8-2.2C6.2,6.8,6.2,6.8,6.1,6.8
		C6,6.6,6.1,6.5,6.2,6.4C6.6,6.2,7,6,7.4,5.7C7.7,5.4,7.8,5,7.9,4.6c0.2-1.1-0.7-1.8-1.6-1.8C6.2,2.8,6,2.9,5.9,3
		C5.3,3.4,4.9,3.7,4.4,4C4.3,4.1,4.1,4.1,4,4.2c0-0.6,0-1.1,0-1.6c0-0.1,0.1-0.2,0.1-0.2C5.3,2.1,6.6,2,8,2.3
		c0.8,0.2,1.3,0.6,1.5,1.3c0.2,0.8,0,1.6-0.6,2.1c-0.4,0.3-1,0.5-1.4,0.8c0.1,0,0.4,0.1,0.5,0.2c1,0.3,1.7,0.9,1.8,1.9v0.1
		c0,0.2,0,0.4,0,0.7c0,0,0,0.1-0.1,0.1c-0.2,1.4-1.1,2.2-2.5,2.5c-0.2,0.1-0.5,0.1-0.8,0.1C6.3,12.3,6.1,12.3,5.9,12.3z"/>
</g>
</svg>
