<?xml version="1.0" encoding="utf-8"?>
<!-- Generator: Adobe Illustrator 18.0.0, SVG Export Plug-In . SVG Version: 6.00 Build 0)  -->
<!DOCTYPE svg PUBLIC "-//W3C//DTD SVG 1.1//EN" "http://www.w3.org/Graphics/SVG/1.1/DTD/svg11.dtd">
<svg version="1.1" id="Layer_1" xmlns="http://www.w3.org/2000/svg" xmlns:xlink="http://www.w3.org/1999/xlink" x="0px" y="0px"
	 viewBox="0 0 612 792" enable-background="new 0 0 612 792" xml:space="preserve">
<g transform="translate(0.000000,256.000000) scale(0.100000,-0.100000)">
	<path d="M3692.9,829.4c437.5,114.8,647.9,320.3,712.4,705.2c81.3,459-153,834.3-690.9,1097.3L3453.8,2761l174.5,40.6
		c370.5,88.5,693.3,308.4,824.8,561.8c62.2,124.3,119.5,377.7,119.5,540.3c0,172.1-59.8,427.9-138.7,595.3
		c-172.1,361-528.3,638.3-982.5,760.2c-315.6,86.1-918,62.2-1453.5-52.6l-126.7-28.7v-380.1v-380.1h59.8
		c38.2,0,191.2,98,439.9,284.5c416,310.8,468.6,332.3,693.3,289.3c167.3-31.1,298.8-110,437.5-258.2
		c219.9-236.7,318-521.2,301.2-879.7c-7.2-176.9-21.5-241.5-86.1-375.3c-133.9-289.3-408.8-511.6-729.1-592.9
		c-98-23.9-112.4-35.9-112.4-90.8s21.5-74.1,157.8-141c306-153,485.3-322.7,600-569c133.9-294,90.8-600-112.4-798.5
		c-160.2-157.8-473.3-253.4-621.6-196c-33.5,14.3-231.9,148.2-442.3,301.2c-303.6,222.3-396.8,277.3-459,277.3h-81.3l7.2-377.7
		l7.2-375.3l239.1-52.6c131.5-28.7,315.6-64.5,406.4-76.5C2849,748.1,3477.8,772,3692.9,829.4z"/>
</g>
</svg>
