<?xml version="1.0" encoding="utf-8"?>
<!-- Generator: Adobe Illustrator 18.0.0, SVG Export Plug-In . SVG Version: 6.00 Build 0)  -->
<!DOCTYPE svg PUBLIC "-//W3C//DTD SVG 1.1//EN" "http://www.w3.org/Graphics/SVG/1.1/DTD/svg11.dtd">
<svg version="1.1" id="Layer_1" xmlns:sketch="http://www.bohemiancoding.com/sketch/ns"
	 xmlns="http://www.w3.org/2000/svg" xmlns:xlink="http://www.w3.org/1999/xlink" x="0px" y="0px" viewBox="0 0 12 12"
	 enable-background="new 0 0 12 12" xml:space="preserve">
<title></title>
<desc></desc>
<g>
	<path d="M2.8,8.8C4,7.1,5.2,5.4,6.4,3.7c0.4-0.6,0.8-1.2,1.2-1.7c0.1-0.1,0.2-0.2,0.3-0.2c0.2,0,0.5,0,0.8,0c0,2.1,0,4.2,0,6.3
		c0.5,0,1,0,1.5,0c0,0.4,0,0.8,0,1.1c-0.5,0-1,0-1.4,0c0,0.6-0.1,1.2,0.1,1.8c0.1,0.1,0.1,0.3,0.3,0.5c0.1,0.1,0.3,0.3,0.3,0.5
		c-1,0-1.9,0-2.9,0c0-0.2,0.1-0.4,0.2-0.5c0.2-0.2,0.3-0.4,0.3-0.6c0.1-0.6,0.1-1.1,0.2-1.8c-0.5,0-0.8,0-1.2,0c-1.1,0-2.2,0-3.3,0
		C2.8,9.1,2.8,8.9,2.8,8.8z M4.4,8c1,0,2,0,2.8,0c0-1.3,0-2.8,0-4.2C6.3,5.2,5.3,6.6,4.4,8z"/>
</g>
</svg>
