<?xml version="1.0" encoding="utf-8"?>
<!-- Generator: Adobe Illustrator 18.0.0, SVG Export Plug-In . SVG Version: 6.00 Build 0)  -->
<!DOCTYPE svg PUBLIC "-//W3C//DTD SVG 1.1//EN" "http://www.w3.org/Graphics/SVG/1.1/DTD/svg11.dtd">
<svg version="1.1" id="Layer_1" xmlns="http://www.w3.org/2000/svg" xmlns:xlink="http://www.w3.org/1999/xlink" x="0px" y="0px"
	 viewBox="0 0 612 792" enable-background="new 0 0 612 792" xml:space="preserve">
<g transform="translate(0.000000,256.000000) scale(0.100000,-0.100000)">
	<path d="M3251.5,703.8h227.1h224.7v1386.6v1386.6H4026h322.7v239.1V3955h-325.1h-325.1l9.6,375.3c9.6,427.9,21.5,461.4,198.4,631.1
		c66.9,64.5,107.6,124.3,107.6,157.8v55h-621.6h-621.6v-62.2c0-45.4,31.1-90.8,105.2-155.4c155.4-136.3,184.1-234.3,200.8-647.9
		l12-353.8H2092h-994.5v-55c0-33.5,121.9-236.7,294-485.3c160.2-234.3,645.5-941.9,1075.8-1570.6L3251.5,703.8z M3072.2,1636.1
		c-9.6,0-1257.5,1812.1-1257.5,1828.8c0,7.2,284.5,12,633.5,12h633.5v-920.4C3081.7,2049.7,3076.9,1636.1,3072.2,1636.1z"/>
</g>
</svg>
