<?xml version="1.0" encoding="utf-8"?>
<!-- Generator: Adobe Illustrator 18.0.0, SVG Export Plug-In . SVG Version: 6.00 Build 0)  -->
<!DOCTYPE svg PUBLIC "-//W3C//DTD SVG 1.1//EN" "http://www.w3.org/Graphics/SVG/1.1/DTD/svg11.dtd">
<svg version="1.1" id="Layer_1" xmlns:sketch="http://www.bohemiancoding.com/sketch/ns"
	 xmlns="http://www.w3.org/2000/svg" xmlns:xlink="http://www.w3.org/1999/xlink" x="0px" y="0px" viewBox="0 0 612 792"
	 enable-background="new 0 0 612 792" xml:space="preserve">
<title></title>
<desc></desc>
<g>
	<path d="M173.4,541c10.2-5.1,20.4,0,25.5,5.1c20.4,15.3,40.8,30.6,56.1,40.8c40.8,25.5,86.7,20.4,112.2-15.3
		c10.2-10.2,20.4-25.5,25.5-40.8c15.3-40.8,15.3-76.5,0-117.3c-15.3-51-51-76.5-102-76.5c-30.6,0-66.3,5.1-102,5.1
		c0-71.4,0-147.9,0-224.4c91.8,0,178.5,0,270.3,0c0,20.4,0,40.8,0,66.3c-76.5,0-147.9,0-224.4,0c0,40.8,0,86.7,0,122.4
		c20.4-5.1,40.8-10.2,66.3-15.3c107.1-15.3,183.6,51,193.8,158.1c5.1,107.1-56.1,183.6-163.2,193.8c-5.1,0-10.2,0-10.2,5.1
		c-10.2,0-20.4,0-30.6,0s-10.2,0-20.4-5.1c-30.6-5.1-61.2-10.2-86.7-15.3C173.4,592,173.4,566.5,173.4,541z"/>
</g>
</svg>
