<?xml version="1.0" encoding="utf-8"?>
<!-- Generator: Adobe Illustrator 18.0.0, SVG Export Plug-In . SVG Version: 6.00 Build 0)  -->
<!DOCTYPE svg PUBLIC "-//W3C//DTD SVG 1.1//EN" "http://www.w3.org/Graphics/SVG/1.1/DTD/svg11.dtd">
<svg version="1.1" id="Layer_1" xmlns:sketch="http://www.bohemiancoding.com/sketch/ns"
	 xmlns="http://www.w3.org/2000/svg" xmlns:xlink="http://www.w3.org/1999/xlink" x="0px" y="0px" viewBox="0 0 12 12"
	 enable-background="new 0 0 12 12" xml:space="preserve">
<title></title>
<desc></desc>
<g>
	<path d="M3.4,10c0.2-0.1,0.4,0,0.5,0.1c0.4,0.3,0.8,0.6,1.1,0.8c0.8,0.5,1.7,0.4,2.2-0.3c0.2-0.2,0.4-0.5,0.5-0.8
		C8,9,8,8.3,7.7,7.5c-0.3-1-1-1.5-2-1.5c-0.6,0-1.3,0.1-2,0.1c0-1.4,0-2.9,0-4.4c1.8,0,3.5,0,5.3,0c0,0.4,0,0.8,0,1.3
		c-1.5,0-2.9,0-4.4,0c0,0.8,0,1.7,0,2.4C5,5.3,5.4,5.2,5.9,5.1c2.1-0.3,3.6,1,3.8,3.1c0.1,2.1-1.1,3.6-3.2,3.8c-0.1,0-0.2,0-0.2,0.1
		c-0.2,0-0.4,0-0.6,0c-0.2,0-0.2,0-0.4-0.1c-0.6-0.1-1.2-0.2-1.7-0.3C3.4,11,3.4,10.5,3.4,10z"/>
</g>
</svg>
