<?xml version="1.0" encoding="utf-8"?>
<!-- Generator: Adobe Illustrator 18.0.0, SVG Export Plug-In . SVG Version: 6.00 Build 0)  -->
<!DOCTYPE svg PUBLIC "-//W3C//DTD SVG 1.1//EN" "http://www.w3.org/Graphics/SVG/1.1/DTD/svg11.dtd">
<svg version="1.1" id="Layer_1" xmlns="http://www.w3.org/2000/svg" xmlns:xlink="http://www.w3.org/1999/xlink" x="0px" y="0px"
	 viewBox="0 0 612 792" enable-background="new 0 0 612 792" xml:space="preserve">
<g transform="translate(0.000000,256.000000) scale(0.100000,-0.100000)">
	<path d="M1841.7,608.1h1159.5h1159.5V895v286.9h-956.2h-956.2v523.5v521.2l222.3-57.4c451.8-117.1,879.8-93.2,1212,69.3
		c322.7,157.8,590.5,504.4,681.3,882.1c52.6,224.7,47.8,640.7-12,867.8c-66.9,263-150.6,406.4-370.5,624
		c-322.7,325.1-650.2,447-1207.3,449.4c-308.4,0-834.3-66.9-996.9-129.1l-57.4-21.5l7.2-363.4l7.2-365.8l59.8-7.2
		c43-4.8,150.6,59.8,406.4,248.6c427.9,313.2,509.2,353.8,676.5,332.3c255.8-33.5,449.4-157.8,590.5-375.3
		c131.5-200.8,191.2-396.8,208-664.6c38.2-652.6-231.9-1102.1-738.7-1219.2c-215.2-47.8-722-19.1-1028,59.8l-66.9,16.7v-982.5V608.1
		z"/>
</g>
</svg>
