<?xml version="1.0" encoding="utf-8"?>
<!-- Generator: Adobe Illustrator 18.0.0, SVG Export Plug-In . SVG Version: 6.00 Build 0)  -->
<!DOCTYPE svg PUBLIC "-//W3C//DTD SVG 1.1//EN" "http://www.w3.org/Graphics/SVG/1.1/DTD/svg11.dtd">
<svg version="1.1" id="Layer_1" xmlns="http://www.w3.org/2000/svg" xmlns:xlink="http://www.w3.org/1999/xlink" x="0px" y="0px"
	 viewBox="0 0 612 792" enable-background="new 0 0 612 792" xml:space="preserve">
<g transform="translate(0.000000,256.000000) scale(0.100000,-0.100000)">
	<path d="M3346.9,797.9c298.8,9.6,516.4,40.6,762.6,107.6l98,26.3v370.5c0,502,12,499.6-490.1,105.2
		c-356.2-282.1-432.7-322.7-580.9-301.2c-372.9,50.2-657.4,377.7-796.1,918c-43,169.7-100.4,602.4-78.9,624
		c4.8,4.8,74.1-19.1,157.8-52.6c298.8-119.5,690.9-174.5,941.9-136.3c492.5,76.5,882.1,473.3,1004.1,1018.4
		c59.8,270.1,38.2,717.2-47.8,982.5c-186.5,578.5-624,872.6-1305.3,875c-810.4,2.4-1267-404-1424.8-1269.4
		c-50.2-282.1-71.7-1008.8-35.9-1307.7c76.5-657.4,313.2-1212,657.4-1553.9c193.6-188.9,387.3-303.6,640.7-370.5
		C2997.8,793.1,3074.3,785.9,3346.9,797.9z M2421.7,2834.7l-172.1,35.9l-16.7,136.3c-23.9,198.4,7.2,1011.2,50.2,1252.7
		c69.3,389.7,196,624,413.6,753c95.6,55,138.7,64.5,291.7,64.5c145.8,0,198.4-12,286.9-59.8c272.5-153,406.4-511.6,406.4-1087.7
		c0-592.9-169.7-941.9-516.4-1071C3002.6,2796.4,2644,2784.5,2421.7,2834.7z"/>
</g>
</svg>
