<?xml version="1.0" encoding="utf-8"?>
<!-- Generator: Adobe Illustrator 18.0.0, SVG Export Plug-In . SVG Version: 6.00 Build 0)  -->
<!DOCTYPE svg PUBLIC "-//W3C//DTD SVG 1.1//EN" "http://www.w3.org/Graphics/SVG/1.1/DTD/svg11.dtd">
<svg version="1.1" id="Layer_1" xmlns:sketch="http://www.bohemiancoding.com/sketch/ns"
	 xmlns="http://www.w3.org/2000/svg" xmlns:xlink="http://www.w3.org/1999/xlink" x="0px" y="0px" viewBox="0 0 612 792"
	 enable-background="new 0 0 612 792" xml:space="preserve">
<title></title>
<desc></desc>
<g>
	<path d="M360.9,739c-10.2,0-20.4,0-30.6,0c-5.1,0-5.1,0-5.1-5.1c-71.4-10.2-112.2-40.8-132.6-117.3
		c-15.3-61.2-15.3-122.4-10.2-178.5c5.1-56.1,25.5-107.1,51-153c35.7-61.2,81.6-86.7,142.8-86.7c25.5,0,51,5.1,76.5,10.2
		c25.5,5.1,25.5,5.1,25.5,30.6c0,20.4,0,40.8,0,71.4c-10.2-5.1-15.3-5.1-25.5-10.2c-15.3-15.3-35.7-30.6-56.1-45.9
		c-15.3-25.5-35.7-25.5-56.1-10.2c-20.4,5.1-35.7,15.3-40.8,35.7c-10.2,25.5-20.4,51-25.5,81.6c-5.1,20.4-5.1,35.7-10.2,56.1
		c25.5-5.1,45.9-15.3,66.3-20.4c76.5-15.3,142.8,25.5,163.2,107.1c10.2,45.9,5.1,91.8-5.1,137.7c-15.3,51-51,81.6-96.9,91.8
		C381.3,733.9,371.1,733.9,360.9,739z M264,519.7L264,519.7c0,20.4,0,40.8,0,61.2c5.1,35.7,5.1,61.2,20.4,91.8
		c15.3,25.5,35.7,40.8,61.2,40.8s45.9-15.3,56.1-40.8c20.4-56.1,20.4-117.3,5.1-173.4c-5.1-30.6-25.5-45.9-45.9-51
		c-30.6-15.3-61.2-10.2-91.8,0c0-5.1-5.1,5.1-5.1,5.1C264,473.8,264,499.3,264,519.7z"/>
</g>
</svg>
