<?xml version="1.0" encoding="utf-8"?>
<!-- Generator: Adobe Illustrator 18.0.0, SVG Export Plug-In . SVG Version: 6.00 Build 0)  -->
<!DOCTYPE svg PUBLIC "-//W3C//DTD SVG 1.1//EN" "http://www.w3.org/Graphics/SVG/1.1/DTD/svg11.dtd">
<svg version="1.1" id="Layer_1" xmlns:sketch="http://www.bohemiancoding.com/sketch/ns"
	 xmlns="http://www.w3.org/2000/svg" xmlns:xlink="http://www.w3.org/1999/xlink" x="0px" y="0px" viewBox="0 0 12 12"
	 enable-background="new 0 0 12 12" xml:space="preserve">
<title></title>
<desc></desc>
<g>
	<path d="M6.9,11.3c-0.2,0-0.4,0-0.6,0c-0.1,0-0.1,0-0.1-0.1C4.8,11,4,10.4,3.6,8.9C3.3,7.7,3.3,6.5,3.4,5.4c0.1-1.1,0.5-2.1,1-3
		C5.1,1.2,6,0.7,7.2,0.7c0.5,0,1,0.1,1.5,0.2C9.2,1,9.2,1,9.2,1.5c0,0.4,0,0.8,0,1.4C9,2.8,8.9,2.8,8.7,2.7C8.4,2.4,8,2.1,7.6,1.8
		C7.3,1.3,6.9,1.3,6.5,1.6C6.1,1.7,5.8,1.9,5.7,2.3c-0.2,0.5-0.4,1-0.5,1.6C5.1,4.3,5.1,4.6,5,5c0.5-0.1,0.9-0.3,1.3-0.4
		c1.5-0.3,2.8,0.5,3.2,2.1c0.2,0.9,0.1,1.8-0.1,2.7c-0.3,1-1,1.6-1.9,1.8C7.3,11.2,7.1,11.2,6.9,11.3z M5,7L5,7c0,0.4,0,0.8,0,1.2
		C5.1,8.9,5.1,9.4,5.4,10c0.3,0.5,0.7,0.8,1.2,0.8c0.5,0,0.9-0.3,1.1-0.8c0.4-1.1,0.4-2.3,0.1-3.4C7.7,6,7.3,5.7,6.9,5.6
		c-0.6-0.3-1.2-0.2-1.8,0C5.1,5.5,5,5.7,5,5.7C5,6.1,5,6.6,5,7z"/>
</g>
</svg>
