<?xml version="1.0" encoding="utf-8"?>
<!-- Generator: Adobe Illustrator 18.0.0, SVG Export Plug-In . SVG Version: 6.00 Build 0)  -->
<!DOCTYPE svg PUBLIC "-//W3C//DTD SVG 1.1//EN" "http://www.w3.org/Graphics/SVG/1.1/DTD/svg11.dtd">
<svg version="1.1" id="Layer_1" xmlns:sketch="http://www.bohemiancoding.com/sketch/ns"
	 xmlns="http://www.w3.org/2000/svg" xmlns:xlink="http://www.w3.org/1999/xlink" x="0px" y="0px" viewBox="0 0 12 12"
	 enable-background="new 0 0 12 12" xml:space="preserve">
<title></title>
<desc></desc>
<g id="_x30_qaGKf_1_">
	<g>
		<path d="M4.2,12c0.4-1,0.9-2,1.3-2.9c0.9-2,1.9-4.1,2.8-6.2c0.1-0.1,0.1-0.2,0.1-0.3c-0.5,0-0.9,0-1.3,0c-0.5,0-0.9,0-1.4,0
			C5.4,2.6,5,2.7,4.7,3.1C4.4,3.4,4,3.7,3.7,4C3.6,4.1,3.4,4.2,3.2,4.1c0-0.9,0-1.8,0-2.7c2.2,0,4.4,0,6.6,0
			C9.7,1.6,9.7,1.8,9.7,1.9C8.8,4.2,7.9,6.5,7.1,8.8C6.7,9.8,6.5,11,6.2,12C5.6,12,4.9,12,4.2,12z"/>
	</g>
</g>
</svg>
