<?xml version="1.0" encoding="utf-8"?>
<!-- Generator: Adobe Illustrator 18.0.0, SVG Export Plug-In . SVG Version: 6.00 Build 0)  -->
<!DOCTYPE svg PUBLIC "-//W3C//DTD SVG 1.1//EN" "http://www.w3.org/Graphics/SVG/1.1/DTD/svg11.dtd">
<svg version="1.1" id="Layer_1" xmlns:sketch="http://www.bohemiancoding.com/sketch/ns"
	 xmlns="http://www.w3.org/2000/svg" xmlns:xlink="http://www.w3.org/1999/xlink" x="0px" y="0px" viewBox="0 0 612 792"
	 enable-background="new 0 0 612 792" xml:space="preserve">
<title></title>
<desc></desc>
<g id="_x30_qaGKf_1_">
	<g>
		<path d="M316.2-379.2c15.3,51,25.5,112.2,45.9,163.2c40.8,117.3,86.7,234.6,132.6,351.9c0,5.1,0,15.3,5.1,25.5
			c-112.2,0-224.4,0-336.6,0c0-45.9,0-91.8,0-137.7c10.2-5.1,20.4,0,25.5,5.1c15.3,15.3,35.7,30.6,51,45.9
			c15.3,20.4,35.7,25.5,51,25.5c25.5,0,45.9,0,71.4,0c20.4,0,40.8,0,66.3,0c0-5.1,0-10.2-5.1-15.3
			c-45.9-107.1-96.9-214.2-142.8-316.2c-20.4-45.9-45.9-96.9-66.3-147.9C249.9-379.2,285.6-379.2,316.2-379.2z"/>
	</g>
</g>
</svg>
