<?xml version="1.0" encoding="utf-8"?>
<!-- Generator: Adobe Illustrator 18.0.0, SVG Export Plug-In . SVG Version: 6.00 Build 0)  -->
<!DOCTYPE svg PUBLIC "-//W3C//DTD SVG 1.1//EN" "http://www.w3.org/Graphics/SVG/1.1/DTD/svg11.dtd">
<svg version="1.1" id="Layer_1" xmlns="http://www.w3.org/2000/svg" xmlns:xlink="http://www.w3.org/1999/xlink" x="0px" y="0px"
	 viewBox="0 0 612 792" enable-background="new 0 0 612 792" xml:space="preserve">
<g transform="translate(0.000000,256.000000) scale(0.100000,-0.100000)">
	<path d="M3986.5,1110.1c59.8,55,138.7,165,184.1,255.8c66.9,138.7,76.5,179.3,76.5,361s-9.6,222.3-78.9,363.4
		c-95.6,198.4-313.2,404-552.2,525.9l-167.3,86.1l160.2,95.6c638.3,382.5,865.4,712.4,865.4,1255.1
		c-2.4,635.9-365.8,1104.5-970.6,1250.3c-222.3,55-683.7,55-901.3,2.4c-444.7-110-784.1-406.4-908.4-791.3
		c-55-176.9-64.5-494.9-19.1-683.7c86.1-353.8,344.2-659.8,724.4-860.6l203.2-105.2l-133.9-81.3c-74.1-43-196-138.7-270.1-212.8
		c-329.9-327.5-413.6-755.4-224.7-1169c114.8-251,408.8-466.2,760.2-559.4C3178.4,727.6,3687.6,835.2,3986.5,1110.1z M3090,1081.5
		c-394.5,2.4-638.3,236.7-633.5,609.6c2.4,78.9,19.1,184.1,40.6,231.9c57.4,138.7,236.7,313.2,506.8,497.2l246.2,167.3l148.2-160.2
		c258.2-274.9,382.5-626.3,313.2-884.5c-45.4-165-167.3-320.3-310.8-394.5C3293.2,1091,3245.4,1081.5,3090,1081.5z M2795.9,2994
		c-45.4,0-253.4,243.8-327.5,382.5c-208,392.1-229.5,984.9-43,1290.9c162.6,267.8,380.1,406.4,638.3,406.4
		c284.5-2.4,499.6-145.8,640.7-427.9c86.1-172.1,88.5-188.9,88.5-430.3c0-224.7-7.2-270.1-62.2-387.3
		c-90.8-193.6-205.6-308.4-580.9-588.1C2968,3103.9,2807.9,2994,2795.9,2994z"/>
</g>
</svg>
