<?xml version="1.0" encoding="utf-8"?>
<!-- Generator: Adobe Illustrator 18.0.0, SVG Export Plug-In . SVG Version: 6.00 Build 0)  -->
<!DOCTYPE svg PUBLIC "-//W3C//DTD SVG 1.1//EN" "http://www.w3.org/Graphics/SVG/1.1/DTD/svg11.dtd">
<svg version="1.1" id="Layer_1" xmlns:sketch="http://www.bohemiancoding.com/sketch/ns"
	 xmlns="http://www.w3.org/2000/svg" xmlns:xlink="http://www.w3.org/1999/xlink" x="0px" y="0px" viewBox="0 0 12 12"
	 enable-background="new 0 0 12 12" xml:space="preserve">
<title></title>
<desc></desc>
<g>
	<path d="M6.8,12c-0.2,0-0.4,0-0.7,0C6,12,6,11.9,5.9,11.9c-1.3-0.1-2.3-1-2.6-2.1c0-0.2-0.1-0.3-0.1-0.4c0-0.2,0-0.3,0-0.5V8.9
		C3.4,7.7,4.1,7,5.1,6.4c0.1-0.1,0.1-0.1,0.2-0.1c-0.3-0.4-0.7-0.6-1-1C3.5,4.4,3.6,3,4.6,2.2c1-0.8,2.6-0.9,3.7-0.2
		c0.5,0.3,0.8,0.7,0.9,1.3C9.4,4.2,9,4.9,8.3,5.4C8,5.6,7.7,5.8,7.5,5.9c0.5,0.3,0.9,0.6,1.3,0.9c1,0.8,1.2,1.8,0.9,2.9
		c-0.2,1.1-1,1.8-2,2C7.4,11.9,7.1,11.9,6.8,12z M5.9,6.5C5.1,7.1,4.8,7.9,4.8,8.8c-0.1,0.8,0.1,1.5,0.7,2c0.7,0.6,1.7,0.5,2.3-0.2
		c0.7-1,0.6-2.2-0.4-3C6.9,7.3,6.4,6.9,5.9,6.5z M6.9,5.6c0.4-0.4,0.8-0.8,1-1.3C8,4.1,8.1,3.8,8,3.5c0-0.7-0.5-1.3-1.2-1.4
		C6,2.1,5.4,2.5,5.2,3.1C5,3.8,5.2,4.4,5.7,4.8C6.1,5.1,6.5,5.3,6.9,5.6z"/>
</g>
</svg>
