<?xml version="1.0" encoding="utf-8"?>
<!-- Generator: Adobe Illustrator 18.0.0, SVG Export Plug-In . SVG Version: 6.00 Build 0)  -->
<!DOCTYPE svg PUBLIC "-//W3C//DTD SVG 1.1//EN" "http://www.w3.org/Graphics/SVG/1.1/DTD/svg11.dtd">
<svg version="1.1" id="Layer_1" xmlns:sketch="http://www.bohemiancoding.com/sketch/ns"
	 xmlns="http://www.w3.org/2000/svg" xmlns:xlink="http://www.w3.org/1999/xlink" x="0px" y="0px" viewBox="0 0 12 12"
	 enable-background="new 0 0 12 12" xml:space="preserve">
<title></title>
<desc></desc>
<g>
	<path d="M6.3,12c-0.2,0-0.4,0-0.7,0c-0.2,0-0.2,0-0.4-0.1c-0.6-0.1-1.1-0.1-1.7-0.2c0-0.6,0-1.2,0-1.9C3.7,9.9,3.9,9.9,4,10
		c0.4,0.3,0.9,0.7,1.3,1c0.1,0.1,0.4,0.2,0.5,0.2c0.8,0.2,1.6-0.2,1.9-1c0.4-0.8,0.5-1.8,0.5-2.7C7.7,7.6,7.4,7.7,6.9,7.8
		C5.3,8.2,3.8,7.4,3.3,5.7C3.2,5.5,3.2,5.2,3.2,4.9c0-0.1,0-0.3,0-0.5c0-0.2,0.1-0.5,0.1-0.7C3.5,2.4,4.6,1.4,6,1.2
		C7.5,1,8.6,1.6,9.3,2.9c0.4,0.8,0.5,1.6,0.5,2.3c0.1,1.4,0,2.9-0.5,4.2c-0.5,1.1-1.1,2-2.4,2.4C6.8,11.9,6.5,11.9,6.3,12z M8.2,5.6
		L8.2,5.6c0-0.4,0-0.8,0-1.1C8.1,3.8,8,3.2,7.7,2.6C7.4,2.1,7.1,1.8,6.5,1.9c-0.6,0-1,0.3-1.2,0.8C4.8,3.8,4.7,4.9,5.2,6
		c0.2,0.6,0.7,1,1.4,1C7,7,7.5,7,8,7c0.2,0,0.2-0.1,0.2-0.3C8.2,6.3,8.2,5.9,8.2,5.6z"/>
</g>
</svg>
