<?xml version="1.0" encoding="utf-8"?>
<!-- Generator: Adobe Illustrator 18.0.0, SVG Export Plug-In . SVG Version: 6.00 Build 0)  -->
<!DOCTYPE svg PUBLIC "-//W3C//DTD SVG 1.1//EN" "http://www.w3.org/Graphics/SVG/1.1/DTD/svg11.dtd">
<svg version="1.1" id="Layer_1" xmlns="http://www.w3.org/2000/svg" xmlns:xlink="http://www.w3.org/1999/xlink" x="0px" y="0px"
	 viewBox="0 0 256 256" enable-background="new 0 0 256 256" xml:space="preserve">
<g transform="translate(0.000000,256.000000) scale(0.100000,-0.100000)">
	<path d="M1850,1761.4c31.2,57.8-17.1,102.7-69.6,134.9c-71.2,43.7-121.4-63.7-184.8-70.8c-52.3-5.9-182.1,62.3-232.8,82.9
		c-51.7,21-42.1,172.4-55,219c-17.5,63.1-138,77.2-144.8,2.8c-4.2-45-11.6-214.2-66.8-225.7c-69-14.3-136.7-37.9-197.6-73.4
		c-63.3-36.9-121.5,80.5-186.8,77.9c-25.8-9.7-47-25.6-63.7-47.7c-53.4-49.7-60.4-34.9-19.8-111.2c54.7-102.9,61.9-118.4,11-224.4
		c-23.7-49.4-13.9-133.2-76.9-146.4c-47.4-9.9-210.7,6.2-225.1-62.2c-28-133.5,111.7-135.8,214.9-135.8
		c68.9,0,72.7-118.2,93.1-163.1c49.2-108.1,35.7-111.8-30.8-222.7c-33.9-56.7,36.1-101.2,73.5-137.8c40.2-39.4,133,47.5,167.9,67.7
		c40.7,23.5,143.2-41.2,179.2-54.6c110-40.9,100.2-77.7,116-192.4c19.2-137.9,153.1-125.4,165,11c3.6,40.8,7.4,161.9,63.7,171
		c58.9,9.5,192.1,93.8,235.4,66.9c75.2-46.7,121.6-111.2,197.5-46.8c70.6,59.8,49.4,97.9,7.3,166.7c-50.4,82.5-25.8,98.1,9.9,186.3
		c46.6,114.9,32.5,143.5,172.1,158.9c118.6,12.6,220,135.4,51.3,171.2c-43.8,9.3-172.3-3.5-186.2,56.4
		c-15.5,66.9-111.8,187.1-76.1,245.4"/>
</g>
</svg>
