<?xml version="1.0" encoding="utf-8"?>
<!-- Generator: Adobe Illustrator 18.0.0, SVG Export Plug-In . SVG Version: 6.00 Build 0)  -->
<!DOCTYPE svg PUBLIC "-//W3C//DTD SVG 1.1//EN" "http://www.w3.org/Graphics/SVG/1.1/DTD/svg11.dtd">
<svg version="1.1" id="Layer_1" xmlns:sketch="http://www.bohemiancoding.com/sketch/ns"
	 xmlns="http://www.w3.org/2000/svg" xmlns:xlink="http://www.w3.org/1999/xlink" x="0px" y="0px" viewBox="0 0 12 12"
	 enable-background="new 0 0 12 12" xml:space="preserve">
<title></title>
<desc></desc>
<g id="hAkYwe_1_">
	<g>
		<path d="M6.8,2c0.1,0,0.2,0,0.4,0c0,0,0,0.1,0.1,0.1c0.1,0.1,0.1,0.2,0.1,0.3c0,0.3,0,0.6,0,0.9c0,0.1,0,0.2,0.2,0.2
			c0,0,0,0,0.1,0C7.7,3.6,7.9,3.6,8,3.7c0.2,0.1,0.4,0.1,0.5,0.2c0.2,0.1,0.4,0.2,0.6,0.3c0.1,0.1,0.1,0.1,0.2,0
			C9.5,4,9.8,3.8,9.9,3.5c0.1-0.1,0.2-0.2,0.4-0.2c0.1,0,0.3,0,0.3,0.1c0,0.1,0.1,0.3-0.1,0.4c-0.2,0.2-0.4,0.4-0.6,0.6
			C9.8,4.7,9.7,4.8,9.9,4.9c0,0,0,0,0,0c0,0.1,0.1,0.2,0.1,0.2c0.2,0.2,0.2,0.5,0.3,0.7c0.1,0.1,0,0.2,0.1,0.3
			c0.1,0.1,0.1,0.2,0.1,0.3c0,0.1,0,0.2,0.1,0.1c0.3,0,0.5,0,0.8,0c0.2,0,0.4,0,0.5,0.2c0,0,0,0,0.1,0c0,0.1,0,0.2,0,0.4
			c0,0-0.1,0-0.1,0.1c-0.1,0.1-0.2,0.1-0.3,0.1c-0.3,0-0.6,0-0.8,0c-0.1,0-0.3,0-0.2,0.2c0,0,0,0,0,0.1c0,0.1,0,0.1-0.1,0.2
			c0,0,0,0.1,0,0.1c0,0.1-0.1,0.1-0.1,0.2c0,0.2-0.1,0.3-0.1,0.4C10.1,8.6,10,8.8,10,8.9c0,0.1-0.1,0.2-0.1,0.2
			c-0.1,0.1-0.1,0.1,0,0.2c0.2,0.2,0.5,0.5,0.7,0.7c0.1,0.1,0.1,0.4,0,0.5c-0.1,0.1-0.4,0.2-0.5,0c-0.2-0.2-0.5-0.5-0.7-0.7
			c0,0-0.1-0.1-0.1,0C9,10,8.8,10,8.6,10.1c-0.1,0.1-0.2,0.1-0.3,0.1c0,0-0.1,0-0.1,0c-0.2,0.2-0.5,0.2-0.7,0.2
			c-0.1,0-0.1,0.1-0.1,0.2c0,0.3,0,0.5,0,0.8c0,0.2,0,0.3-0.2,0.5c0,0,0,0,0,0.1c-0.1,0-0.2,0-0.4,0c0,0,0-0.1-0.1-0.1
			c-0.1-0.1-0.1-0.2-0.1-0.3c0-0.3,0-0.6,0-0.9c0-0.1,0-0.2-0.2-0.2c0,0,0,0-0.1,0c-0.2-0.1-0.4-0.1-0.6-0.2c0,0-0.1,0-0.1-0.1
			c-0.1-0.1-0.3-0.1-0.4-0.2C5.1,10,5,9.9,4.9,9.8c-0.1-0.1-0.1-0.1-0.2,0c-0.2,0.2-0.5,0.5-0.7,0.7c-0.1,0.1-0.4,0.1-0.5,0
			c0,0-0.1-0.1-0.1-0.2c0-0.2,0-0.3,0.1-0.4C3.7,9.8,3.8,9.6,4,9.6c0,0,0,0,0,0c0.1-0.1,0.1-0.2,0.2-0.2c0,0,0-0.1,0-0.1
			c0-0.1-0.1-0.2-0.2-0.3C4,8.8,3.9,8.7,3.9,8.6c0-0.1-0.1-0.1-0.1-0.2C3.7,8.2,3.6,8.1,3.6,7.9c0-0.1-0.2-0.2-0.1-0.4
			c0-0.1,0-0.1-0.1-0.1c-0.3,0-0.5,0-0.8,0c-0.2,0-0.4,0-0.5-0.2c0,0,0,0-0.1,0c0-0.1,0-0.2,0-0.4c0,0,0.1,0,0.1-0.1
			c0.1-0.1,0.2-0.1,0.3-0.1c0.3,0,0.6,0,0.9,0c0,0,0.1,0,0.1-0.1C3.5,6.4,3.6,6.2,3.7,6c0-0.1,0.1-0.3,0.1-0.4c0,0,0,0,0-0.1
			C3.9,5.4,4,5.2,4,5.1c0-0.1,0.1-0.2,0.1-0.2c0.1-0.1,0.1-0.1,0-0.2C3.9,4.4,3.7,4.2,3.4,4c-0.1-0.1-0.1-0.4,0-0.5
			c0.1-0.1,0.4-0.2,0.5,0c0.2,0.2,0.5,0.5,0.7,0.7c0,0,0.1,0.1,0.1,0.1C4.9,4.2,5,4.1,5.1,4C5.2,4,5.3,3.9,5.4,3.9
			c0.2,0,0.3-0.1,0.4-0.2c0.1,0,0.2-0.1,0.2-0.1c0.1,0,0.3,0,0.4-0.1c0.1-0.1,0.1-0.1,0.1-0.2c0-0.3,0-0.5,0-0.8
			C6.6,2.3,6.6,2.2,6.8,2C6.8,2.1,6.8,2,6.8,2z"/>
	</g>
</g>
</svg>
