<?xml version="1.0" encoding="utf-8"?>
<!-- Generator: Adobe Illustrator 18.0.0, SVG Export Plug-In . SVG Version: 6.00 Build 0)  -->
<!DOCTYPE svg PUBLIC "-//W3C//DTD SVG 1.1//EN" "http://www.w3.org/Graphics/SVG/1.1/DTD/svg11.dtd">
<svg version="1.1" id="Layer_1" xmlns="http://www.w3.org/2000/svg" xmlns:xlink="http://www.w3.org/1999/xlink" x="0px" y="0px"
	 viewBox="0 0 64 64" enable-background="new 0 0 64 64" xml:space="preserve">
<path d="M63.5,15.9c-0.4-0.4-0.8-0.5-1.3-0.5c-0.2,0-0.8,0.2-1.5,0.6c-0.8,0.4-1.6,0.8-2.5,1.3c-0.9,0.5-1.9,0.9-3.1,1.3
	c-1.2,0.4-2.3,0.6-3.3,0.6c-0.9,0-1.8-0.2-2.5-0.5c-2.4-1.1-4.4-1.9-6.2-2.5c-1.8-0.5-3.6-0.8-5.7-0.8c-3.5,0-7.5,1.1-11.9,3.4
	c-0.9,0.5-1.6,0.8-2,1.1L23,16.8c1-0.8,1.6-2,1.6-3.4c0-2.5-2-4.5-4.5-4.5s-4.5,2-4.5,4.5c0,1.6,0.9,3,2.2,3.8l6.1,44.5
	C24,63,25.1,64,26.5,64c0.1,0,0.2,0,0.4,0c1.5-0.2,2.5-1.5,2.3-3l-2.5-17.9c4.5-2.2,8.3-3.3,11.6-3.3c1.4,0,2.7,0.2,4,0.6
	c1.3,0.4,2.4,0.9,3.3,1.3c0.9,0.5,1.9,0.9,3.1,1.3c1.2,0.4,2.3,0.6,3.5,0.6c2.9,0,6.4-1.1,10.4-3.3c0.5-0.3,0.9-0.5,1.1-0.8
	c0.2-0.3,0.4-0.6,0.4-1.1V17.2C64,16.7,63.8,16.3,63.5,15.9z"/>
</svg>
