<?xml version="1.0" encoding="utf-8"?>
<!-- Generator: Adobe Illustrator 18.0.0, SVG Export Plug-In . SVG Version: 6.00 Build 0)  -->
<!DOCTYPE svg PUBLIC "-//W3C//DTD SVG 1.1//EN" "http://www.w3.org/Graphics/SVG/1.1/DTD/svg11.dtd">
<svg version="1.1" id="Layer_1" xmlns:sketch="http://www.bohemiancoding.com/sketch/ns"
	 xmlns="http://www.w3.org/2000/svg" xmlns:xlink="http://www.w3.org/1999/xlink" x="0px" y="0px" viewBox="0 0 16 16"
	 enable-background="new 0 0 16 16" xml:space="preserve">
<title></title>
<desc></desc>
<path d="M1.3,3.8h13.5c0.6,0,1.1-0.6,1.1-1.4s-0.5-1.4-1.1-1.4H1.3c-0.6,0-1.1,0.6-1.1,1.4S0.6,3.8,1.3,3.8z M14.7,6.6H1.3
	C0.6,6.6,0.1,7.2,0.1,8s0.5,1.4,1.1,1.4h13.5c0.6,0,1.1-0.6,1.1-1.4S15.4,6.6,14.7,6.6z M14.7,12.2H1.3c-0.6,0-1.1,0.6-1.1,1.4
	s0.5,1.4,1.1,1.4h13.5c0.6,0,1.1-0.6,1.1-1.4S15.4,12.2,14.7,12.2z"/>
</svg>
