<?xml version="1.0" encoding="utf-8"?>
<!-- Generator: Adobe Illustrator 18.0.0, SVG Export Plug-In . SVG Version: 6.00 Build 0)  -->
<!DOCTYPE svg PUBLIC "-//W3C//DTD SVG 1.1//EN" "http://www.w3.org/Graphics/SVG/1.1/DTD/svg11.dtd">
<svg version="1.1" id="Layer_1" xmlns="http://www.w3.org/2000/svg" xmlns:xlink="http://www.w3.org/1999/xlink" x="0px" y="0px"
	 viewBox="0 0 64 64" enable-background="new 0 0 64 64" xml:space="preserve">
<path d="M16,10c-1.1,0-2,0.9-2,2v5.2l-1.4,1.4c-0.5,0.5-0.6,1-0.6,1.4c0,1.1,0.9,2,2,2c0.6,0,1-0.2,1.4-0.6l2.1-2.1
	C17.8,19,18,18.6,18,18v-6C18,10.9,17.1,10,16,10z M16,4C8.3,4,2,10.3,2,18c0,3.2,1.1,6,2.8,8.4l-2.2,2.2C2.2,29,2,29.5,2,30
	c0,1.2,1,2,2,2c0.5,0,1-0.2,1.4-0.6l2.2-2.2C9.9,30.9,12.8,32,16,32s6-1.1,8.4-2.8l2.2,2.2C27,31.8,27.5,32,28,32c1,0,2-0.8,2-2
	c0-0.5-0.2-1-0.6-1.4l-2.2-2.2C28.9,24,30,21.2,30,18C30,10.3,23.7,4,16,4z M16,28c-5.5,0-10-4.5-10-10S10.5,8,16,8s10,4.5,10,10
	S21.5,28,16,28z M26,0c-2.1,0-4,1.1-5.1,2.8c3.9,1.3,7.2,4,9.1,7.6C31.3,9.3,32,7.7,32,6C32,2.7,29.3,0,26,0z M11.1,2.8
	C10,1.1,8.1,0,6,0C2.7,0,0,2.7,0,6c0,1.7,0.7,3.3,1.9,4.4C3.9,6.8,7.1,4.1,11.1,2.8z"/>
</svg>
